<svg version="1.2" xmlns="http://www.w3.org/2000/svg" viewBox="0 0 32 32" width="32" height="32">
	<style>
		.s0 { fill: #1769ff } 
		.s1 { fill: #ffffff } 
	</style>
	<g>
		<path class="s0" d="m21.69 3h-11.38c-4.06 0-7.31 3.25-7.31 7.31v11.38c0 4.06 3.25 7.31 7.31 7.31h11.38c4.06 0 7.31-3.25 7.31-7.31v-11.38c0-4.06-3.25-7.31-7.31-7.31z"/>
	</g>
	<path fill-rule="evenodd" class="s1" d="m18.35 12.29h4.94c0.5 0 0.83-0.33 0.83-0.82 0-0.49-0.33-0.82-0.83-0.82h-4.94c-0.49 0-0.82 0.33-0.82 0.82 0 0.49 0.33 0.82 0.82 0.82zm7.41 5.77c0-2.72-2.22-4.94-4.94-4.94-2.71 0-4.94 2.22-4.94 4.94 0 2.72 2.23 4.94 4.94 4.94 1.16 0 2.23-0.41 3.13-1.15 0.5-0.41 0.83-0.83 1.16-1.32 0.24-0.41 0.08-0.91-0.33-1.15-0.42-0.25-0.91-0.09-1.16 0.33-0.16 0.33-0.49 0.65-0.74 0.9-0.57 0.5-1.32 0.74-2.06 0.74-1.56 0-2.8-1.07-3.21-2.47h7.33c0.5 0 0.82-0.33 0.82-0.82zm-8.15-0.82c0.33-1.4 1.65-2.48 3.21-2.48 1.57 0 2.8 1.08 3.22 2.48zm-2.56-4.53c0-2.06-1.64-3.71-3.7-3.71h-4.53c-0.5 0-0.83 0.33-0.83 0.82v12.36c0 0.49 0.33 0.82 0.83 0.82h4.11c2.31 0 4.12-1.81 4.12-4.12 0-1.32-0.57-2.39-1.56-3.21 0.99-0.66 1.56-1.73 1.56-2.96zm-4.12 8.64h-3.29v-4.94h3.29c1.4 0 2.48 1.07 2.48 2.47 0 1.4-1.08 2.47-2.48 2.47zm0.42-6.59h-3.71v-4.11h3.71c1.15 0 2.06 0.9 2.06 2.06 0 1.15-0.91 2.05-2.06 2.05z"/>
</svg>